<?xml version="1.0" encoding="UTF-8"?>
<!-- Generated by Pixelmator Pro 3.6.16 -->
<svg width="350" height="750" viewBox="0 0 350 750" xmlns="http://www.w3.org/2000/svg">
    <path id="-" fill="#000000" stroke="none" d="M 161.133331 20.533325 C 147.666656 25.599976 141.799988 35.06665 141.799988 52.266663 C 141.666656 61.200012 141.266663 62.799988 139 64 C 136.866669 65.06665 136.333344 66.799988 136.333344 71.733337 C 136.333344 78.93335 139.666656 86.400024 145.933319 93.733337 C 149.799988 98.400024 150.333344 99.866638 150.866669 108.93335 C 151.933319 130.266663 146.066681 137.466675 120.866669 145.333313 C 109.399994 149.06665 101.666656 153.333313 97.133331 158.799988 C 90.200012 166.93335 89.399994 170.93335 88.200012 199.333313 C 85.399994 263.200012 84.733337 272.666687 82.466675 278.533325 C 78.600006 288.93335 77.933319 302.93335 79.666656 342 C 80.466675 362.533325 81 384.799988 80.600006 391.599976 C 79.799988 409.06665 80.600006 412 89 421.200012 C 96.600006 429.333313 103.133331 433.333313 108.733337 433.333313 C 111.133331 433.333313 112.600006 432.133362 114.200012 428.666687 C 116.866669 423.06665 116.333344 420.400024 111 415.333313 L 107.133331 411.599976 L 109.666656 408.266663 C 111.666656 405.866638 112.333344 402.93335 112.333344 397.06665 C 112.333344 390.400024 111.399994 387.333313 106.866669 378.266663 C 100.466675 365.333313 100.466675 366.400024 108.600006 330.400024 C 113.399994 309.200012 114.200012 303.733337 114.333344 288.666687 C 114.600006 277.06665 115.533325 266.93335 117.399994 258 C 118.866669 250.666687 120.333344 243.200012 120.600006 241.333313 C 120.866669 239.06665 121.799988 241.06665 123.399994 247.333313 C 130.333344 275.466675 131.266663 290.799988 127.133331 310 C 120.866669 338.666687 115.933319 394.266663 117.799988 414.666687 C 119.533325 434 123 457.200012 127.266663 478 C 132.600006 504.133362 133.799988 530.133301 130.200012 546.799988 C 126.466675 564.666626 127.133331 580.799988 132.733337 608.666626 C 139.533325 643.333374 141.933319 660 141.933319 676.666626 C 142.066681 694.133301 139.666656 702.133301 130.200012 714.133301 C 123.799988 722.533325 123.133331 725.200012 126.733337 728.400024 C 132.866669 734 158.600006 734.799988 167.133331 729.733337 L 171.666656 727.06665 L 171.399994 717.200012 C 171.266663 711.733337 170.066681 699.466675 168.733337 690 C 165.533325 665.866699 165.533325 622.266663 169 601.333374 C 172.466675 579.599976 172.333344 564.533325 168.600006 550.93335 C 165.799988 540.533325 165.666656 537.866699 166.200012 510.93335 C 166.600006 495.06665 167.533325 473.866638 168.333344 464 C 169 454.133362 170.066681 434.799988 170.600006 420.93335 C 171.399994 396.400024 171.399994 396 174.333344 396 C 177.133331 396 177.266663 396.666687 178.200012 414.266663 C 178.600006 424.400024 180.466675 448.799988 182.333344 468.666687 C 184.200012 488.400024 185.666656 509.200012 185.799988 514.666626 C 185.799988 520.133301 186.333344 528.266663 186.866669 532.666626 C 187.666656 538.666626 187.266663 543.466675 185.266663 552 C 182.333344 565.333374 182.733337 578.799988 186.866669 598.666626 C 191.266663 619.200012 193.799988 645.866699 193.799988 669.733337 C 193.799988 682 193.533325 692.533325 193.133331 693.200012 C 192.733337 693.733337 192.333344 701.333374 192.200012 709.866699 C 192.066681 727.733337 192.733337 729.333374 202.333344 732 C 209.799988 734.133301 230.333313 733.200012 235.666687 730.666626 C 241.799988 727.599976 241.666687 722.799988 235.266663 715.06665 C 228.466675 706.799988 223.799988 698.266663 221.666656 690.266663 C 219.133331 680.93335 220.733337 643.06665 225.133362 609.333374 C 229 579.466675 228.866638 563.06665 224.866638 549.333374 C 219.799988 532 219.133331 508.533325 223 482.666687 C 229.799988 437.866638 231 408 227.666687 370.666687 C 225.666687 348.266663 224.466675 340.133362 218.466675 307.333313 C 214.600006 286.533325 214.733337 284.93335 221.799988 250.666687 L 225 235.333313 L 225.799988 242 C 226.333313 245.599976 227.93335 253.466675 229.400024 259.333313 C 231.666687 267.866638 232.200012 273.599976 231.93335 288 C 231.666687 306.799988 232.06665 308.799988 240.333313 342.799988 C 245.533325 364.400024 245.533325 369.599976 240.06665 378.133362 C 236.200012 383.866638 235.666687 385.733337 235.666687 393.466675 C 235.666687 401.06665 236.200012 402.93335 239.533325 407.200012 L 243.266663 412.266663 L 239.799988 415.866638 C 236.06665 419.866638 235.533325 423.333313 237.93335 428.666687 C 241.400024 436.400024 255.93335 429.466675 263.93335 416.133362 L 267.666687 410 L 267.533325 350 L 267.400024 290 L 263.93335 278.799988 C 261.133362 270.266663 260.333313 264.799988 260.333313 256.133362 C 260.333313 249.866638 259.400024 236.266663 258.333313 226 C 257.266663 215.733337 256.333313 200.266663 256.333313 191.733337 C 256.333313 161.733337 250.06665 153.06665 221.533325 144 C 199.666656 136.93335 194.466675 131.733337 193 115.599976 C 192.200012 107.466675 192.600006 105.06665 195 99.733337 C 196.466675 96.266663 199.266663 91.733337 201 89.466675 C 205 84.799988 208.333344 77.333313 208.333344 72.93335 C 208.333344 71.333313 207.133331 67.599976 205.666656 64.666687 C 203.799988 60.93335 203 56.799988 203 50.400024 C 203 36.799988 197.799988 26.93335 187.933319 21.733337 C 182.333344 18.93335 167.399994 18.266663 161.133331 20.533325 Z M 189 32 C 195.533325 38.266663 196.866669 43.466675 195.933319 58.400024 C 195.399994 67.733337 195.533325 70.666687 196.733337 69.466675 C 199.533325 66.666687 201.666656 67.866638 201.666656 72.266663 C 201.666656 78.799988 198.866669 85.200012 195.799988 85.599976 C 193.933319 85.866638 192.866669 87.333313 192.200012 90.266663 C 190.066681 101.06665 181.266663 109.333313 171.933319 109.333313 C 167.266663 109.333313 165.799988 108.533325 160.866669 103.333313 C 157.533325 100 154.466675 95.200012 153.666656 92.133362 C 152.866669 89.06665 151.399994 86.666687 149.933319 86.400024 C 146.866669 85.599976 143 77.599976 143 72 C 143 68.133362 143.266663 67.733337 146.200012 68.533325 L 149.533325 69.333313 L 148.733337 60.133362 C 147.666656 47.599976 149.133331 39.466675 153.399994 34.533325 C 158.600006 28.266663 163.533325 26.533325 174.733337 27.06665 C 183.666656 27.599976 184.866669 28 189 32 Z M 172.600006 113.866638 C 175.933319 113.866638 180.333344 112.799988 182.200012 111.599976 C 186.066681 108.93335 186.066681 108.93335 187.533325 121.866638 C 189.266663 136.266663 197.933319 144 221 151.466675 C 235.133362 156 241.533325 160.400024 245.533325 168.533325 C 248.466675 174.400024 248.866638 177.466675 249.93335 201.866638 C 252.733337 265.06665 253.133362 270.799988 256.466675 280 C 259.666687 288.533325 259.666687 289.200012 259.266663 333.333313 C 259 360.799988 259.400024 383.733337 260.466675 392.93335 C 261.93335 407.333313 261.799988 408 259.133362 412.533325 C 255.666687 418.133362 246.333313 426.666687 243.799988 426.666687 C 239.400024 426.666687 240.466675 423.466675 246.866638 416.799988 C 250.466675 412.799988 253.93335 408.133362 254.333313 406.400024 C 255.400024 402.133362 251.799988 393.333313 249.133362 393.333313 C 247.400024 393.333313 247.266663 394.533325 247.93335 399.333313 C 248.599976 404.133362 248.333313 405.466675 246.466675 406.133362 C 243.400024 407.333313 243.133362 406.93335 241.400024 398.400024 L 239.799988 390.93335 L 245.666687 381.466675 C 251.266663 372 251.400024 371.733337 250.599976 362.266663 C 250.200012 356.93335 248.06665 344.799988 245.93335 335.333313 C 239.666687 307.866638 238.599976 299.599976 239.533325 285.466675 C 240.333313 274 240.06665 270.666687 236.333313 254 C 233.400024 241.06665 231.799988 230 231.266663 217.466675 C 230.466675 201.733337 230.06665 199.333313 228.06665 198.93335 C 226.599976 198.666687 225.266663 199.599976 224.466675 201.599976 C 221.799988 208.666687 212.333344 215.06665 199.266663 218.666687 C 196.066681 219.466675 193.799988 220.533325 194.200012 220.93335 C 195.666656 222.400024 209.933319 221.200012 214.733337 219.333313 C 217.266663 218.133362 219.533325 217.466675 219.666656 217.599976 C 219.933319 217.866638 217.666656 230.266663 214.600006 245.333313 C 208.333344 277.06665 207.533325 294.93335 211.399994 315.06665 L 213.799988 326.666687 L 209.799988 336.266663 L 205.799988 345.733337 L 209.666656 342 C 211.933319 339.866638 213.666656 337.333313 213.666656 336.400024 C 213.666656 335.466675 214.200012 334.666687 214.866669 334.666687 C 216.066681 334.666687 216.600006 338.400024 219.799988 372 C 222.733337 404.133362 221.799988 436.400024 216.866669 470 C 211.933319 502.93335 211.799988 531.733337 216.333344 546.133301 C 220.866669 560.533325 221.266663 578.533325 217.533325 608.666626 C 215.266663 627.733337 214.466675 641.200012 214.466675 663.333374 C 214.333344 691.733337 214.466675 692.93335 217.666656 700 C 219.399994 704 223.799988 711.200012 227.400024 715.866699 C 232.333313 722.400024 233.400024 724.666626 232.06665 725.466675 C 229.133362 727.466675 202.466675 726.93335 199.799988 724.93335 C 197.533325 723.200012 197.399994 722.266663 199 711.866699 C 199.933319 705.599976 200.600006 687.733337 200.600006 671.333374 C 200.733337 640.666626 198.733337 620 193.399994 594 C 190.333344 578.666626 190.600006 560.266663 194.333344 548.266663 C 195.933319 542.799988 196.200012 540.133301 195 536.266663 C 194.333344 533.599976 193.666656 525.333374 193.666656 518 C 193.666656 510.666687 193 499.599976 192.333344 493.333313 C 191 481.333313 186.466675 427.200012 184.866669 404.533325 C 184.066681 392.666687 184.333344 390.93335 186.466675 388.666687 C 188.866669 386.400024 188.733337 386.266663 182.333344 387.466675 C 178.600006 388.133362 171.799988 388.533325 167 388.400024 C 158.466675 388.133362 158.333344 388.133362 161.266663 390.666687 L 164.333344 393.06665 L 163 421.466675 C 162.200012 437.200012 161 458.400024 160.200012 468.666687 C 159.399994 478.93335 158.600006 499.733337 158.200012 514.93335 C 157.666656 540.266663 157.799988 542.93335 160.333344 549.333374 C 161.799988 553.06665 163.533325 560.533325 164.066681 566 C 165.133331 576 164.866669 581.333374 161.133331 611.333374 C 158.733337 630.533325 158.466675 654 160.333344 673.333374 C 161.933319 691.333374 164.200012 711.733337 165.133331 718.133301 C 165.799988 723.200012 165.666656 723.733337 161.799988 725.200012 C 157.666656 726.93335 133.399994 726.799988 131.666656 725.06665 C 131.133331 724.666626 133.133331 721.06665 136.066681 717.06665 C 146.866669 702.533325 150.466675 689.06665 149.133331 669.06665 C 147.933319 652.266663 144.066681 626.133301 139.666656 606 C 134.866669 584.133301 134.066681 568.133301 137 550.93335 C 138.200012 543.466675 139.399994 532.666626 139.533325 526.93335 C 139.799988 521.333374 140.066681 516 140.333344 515.333374 C 141 513.599976 139.799988 506.400024 133.666656 471.333313 C 130.733337 455.200012 127.799988 435.733337 126.866669 428 C 124.466675 406.93335 126.466675 355.333313 130.466675 337.06665 L 131.266663 333.333313 L 135.399994 339.599976 C 142.066681 349.333313 143.266663 347.866638 137.666656 336.666687 C 134.866669 331.200012 132.866669 325.599976 133.133331 324.266663 C 139.533325 293.06665 139 276 131.133331 244.93335 C 128.066681 233.333313 125.666656 222.133362 125.666656 220 L 125.666656 216.266663 L 130.600006 218.799988 C 135.933319 221.466675 151.933319 222.533325 150.333344 220 C 149.933319 219.200012 148.466675 218.666687 147.266663 218.666687 C 143.799988 218.666687 129.266663 211.333313 126.466675 208.133362 C 125 206.666687 123.266663 204 122.466675 202.266663 C 121.666656 200.666687 119.533325 199.200012 117.933319 198.93335 C 115.133331 198.533325 115 198.93335 115 206.266663 C 115 218.799988 111.266663 249.866638 108.333344 262 C 106.200012 271.200012 105.933319 276 106.466675 287.599976 C 107.266663 300.400024 106.866669 304.133362 103.133331 322 C 93.533325 367.733337 93.399994 369.06665 101.399994 381.06665 C 105.933319 387.733337 106.333344 389.333313 106.333344 397.466675 C 106.333344 408.799988 104.066681 412.133362 101 404.93335 C 99.933319 402.266663 99 398.533325 99 396.666687 C 99 394.799988 98.466675 393.333313 97.666656 393.333313 C 95.666656 393.333313 93.666656 398.133362 93.666656 403.06665 C 93.666656 407.06665 94.866669 408.799988 101.666656 415.06665 C 111 423.866638 111.799988 426 104.866669 424.93335 C 99.533325 424 95.533325 420.93335 90.466675 413.466675 L 87.266663 408.666687 L 86.733337 348 C 86.333344 287.866638 86.333344 287.333313 89.399994 279.466675 C 91.533325 273.866638 92.333344 268.666687 92.333344 261.466675 C 92.333344 255.866638 93 244.133362 93.799988 235.333313 C 94.600006 226.533325 95.399994 209.333313 95.666656 197.06665 C 96.066681 176 96.333344 174.400024 99.666656 168.400024 C 103.666656 160.93335 109 157.200012 122.066681 152.400024 C 134.200012 148.133362 144.066681 143.200012 148.066681 139.466675 C 153.133331 134.93335 156.600006 126.666687 157.399994 117.866638 L 158.066681 109.733337 L 162.200012 111.866638 C 164.466675 113.06665 169.133331 114 172.600006 113.866638 Z"/>
</svg>
